<?xml version="1.0" standalone="no"?><!DOCTYPE svg PUBLIC "-//W3C//DTD SVG 1.1//EN" "http://www.w3.org/Graphics/SVG/1.1/DTD/svg11.dtd"><svg t="1631898937326" class="icon" viewBox="0 0 1024 1024" version="1.1" xmlns="http://www.w3.org/2000/svg" p-id="5909" xmlns:xlink="http://www.w3.org/1999/xlink" width="200" height="200"><defs><style type="text/css"></style></defs><path d="M460.8 819.2c-199.68 0-358.4-158.72-358.4-358.4s158.72-358.4 358.4-358.4 358.4 158.72 358.4 358.4-158.72 358.4-358.4 358.4zM460.8 204.8C317.44 204.8 204.8 317.44 204.8 460.8s112.64 256 256 256 256-112.64 256-256-112.64-256-256-256z" fill="#ffffff" p-id="5910"></path><path d="M870.4 921.6c-15.36 0-25.6-5.12-35.84-15.36l-153.6-153.6c-20.48-20.48-20.48-51.2 0-71.68 20.48-20.48 51.2-20.48 71.68 0l153.6 153.6c20.48 20.48 20.48 51.2 0 71.68-10.24 10.24-20.48 15.36-35.84 15.36z" fill="#ffffff" p-id="5911"></path></svg>