<svg id="Layer_1" data-name="Layer 1" xmlns="http://www.w3.org/2000/svg" viewBox="0 0 36 36"><defs><style>.cls-1{fill:#00005b;}.cls-2{fill:#99f;}</style></defs><title>Artboard 1</title><rect class="cls-1" y="0.5" width="36" height="35" rx="6.36591"/><path class="cls-2" d="M14.45394,21.13838H8.73669L7.57344,24.72367a.291.291,0,0,1-.297.22211H4.38068q-.24768,0-.17325-.27147l4.95-14.19747q.07426-.22212.1485-.50594A5.43492,5.43492,0,0,0,9.39631,8.974a.153.153,0,0,1,.17325-.17274h3.93525q.17287,0,.198.12339l5.62239,15.78366q.07424.247-.1485.2468H15.95918a.22869.22869,0,0,1-.24749-.17276ZM9.64416,18.01232h3.91051c-.099-.32892-.23111-.68269-.363-1.09415q-.19837-.6166-.42074-1.32035l-.44551-1.40672q-.22275-.70337-.40836-1.35738-.18564-.65361-.33413-1.19695h-.02476a19.87264,19.87264,0,0,1-.51974,1.97435q-.34691,1.1106-.70538,2.27052C10.09369,16.65518,9.875,17.35446,9.64416,18.01232Z"/><path class="cls-2" d="M28.42981,19.71074H23.554a3.27737,3.27737,0,0,0,.47827,1.31657,2.54549,2.54549,0,0,0,1.12614.92548,4.75941,4.75941,0,0,0,1.96761.34552,9.00409,9.00409,0,0,0,1.59639-.13575,6.67077,6.67077,0,0,0,1.44789-.43188c.08236-.06555.12374-.02469.12374.12339v2.34456a.36488.36488,0,0,1-.03713.1851.35441.35441,0,0,1-.11137.111,6.95392,6.95392,0,0,1-1.60876.53061,10.9073,10.9073,0,0,1-2.178.1851,7.081,7.081,0,0,1-2.94526-.543,5.248,5.248,0,0,1-1.93048-1.45609,5.69677,5.69677,0,0,1-1.06424-2.01138,7.89778,7.89778,0,0,1-.32176-2.23349,7.76027,7.76027,0,0,1,.38361-2.43094,6.34531,6.34531,0,0,1,1.15089-2.09776,5.52634,5.52634,0,0,1,1.85625-1.45609,5.80493,5.80493,0,0,1,2.57011-.50663,5.62488,5.62488,0,0,1,2.39227.44494,4.3176,4.3176,0,0,1,1.62111,1.271,5.6061,5.6061,0,0,1,.91574,1.7399,6.184,6.184,0,0,1,.297,1.87564q0,.54313-.0371.98718-.03713.44422-.06189.64167a.22391.22391,0,0,1-.22273.19743q-.14853,0-.50738.037-.35909.037-.891.04935C29.209,19.72779,28.8258,19.71074,28.42981,19.71074Zm-4.86775-2.373h3.24225q.594,0,.87865-.01234a1.74952,1.74952,0,0,0,.35885-.037v-.14809a1.96705,1.96705,0,0,0-.099-.56762,2.02211,2.02211,0,0,0-2.00474-1.40674,2.15077,2.15077,0,0,0-2.04189,1.15994A3.10989,3.10989,0,0,0,23.56206,17.33773Z"/></svg>